<svg width="53" height="62" viewBox="0 0 53 62" fill="none" xmlns="http://www.w3.org/2000/svg">
<path d="M45.5554 37.1981C47.4736 37.1987 49.3177 37.891 50.7042 39.1312C52.0908 40.3713 52.913 42.0638 53 43.8566V44.1728H26.505V47.2695L52.9271 47.2726C52.7256 48.9183 52.1507 50.5046 51.2407 51.9255L26.505 51.9193V55.0191L48.4975 55.0253C43.329 59.6937 35.9407 62 26.4917 62C16.0686 62 8.16353 59.1946 2.97518 53.5064C1.05559 51.4027 0.000687379 48.7275 7.36648e-07 45.9614V44.1697C-0.000434473 43.2539 0.191974 42.347 0.566238 41.5008C0.940501 40.6547 1.48928 39.8858 2.18124 39.2381C2.87319 38.5904 3.69475 38.0766 4.59899 37.726C5.50323 37.3755 6.47242 37.195 7.45121 37.195H45.5554V37.1981ZM26.4917 7.77042e-06C29.0639 -0.00240426 31.6012 0.556758 33.9018 1.63302C36.2025 2.70929 38.203 4.27297 39.7442 6.1997H26.5017V9.29644L41.6791 9.29954C42.3549 10.7503 42.8022 12.3126 42.9778 13.9493H26.5017V17.0492L42.9778 17.0554C42.8075 18.6593 42.3693 20.2283 41.6791 21.7051L26.5017 21.6989V24.7988L39.7442 24.8019C38.0496 26.9148 35.8059 28.5875 33.2261 29.661C30.6463 30.7345 27.816 31.1733 25.004 30.9356C22.1921 30.698 19.4916 29.7918 17.1592 28.3032C14.8267 26.8146 12.9397 24.7929 11.6771 22.43C10.4146 20.0672 9.81843 17.4416 9.94534 14.8026C10.0722 12.1636 10.918 9.59869 12.4022 7.35147C13.8865 5.10425 15.96 3.24926 18.4259 1.96263C20.8918 0.675991 23.6683 0.000404148 26.4917 7.77042e-06Z" fill="black"/>
</svg>
